<svg width="91.735" height="65.281" viewBox="0 0 91.735 65.281"
    xmlns="http://www.w3.org/2000/svg">
    <g id="svgGroup" stroke-linecap="round" fill-rule="evenodd" font-size="9pt" stroke="#00056b" stroke-width="0.25mm" fill="#00056b" style="stroke:#00056b;stroke-width:0.25mm;fill:#00056b">
        <path d="M 0 40 L 0 0 L 10.027 0 L 10.027 37.867 A 27.365 27.365 0 0 0 10.519 43.232 Q 11.148 46.373 12.579 48.792 A 14.233 14.233 0 0 0 14.827 51.68 Q 19.083 55.889 26.694 56.366 A 31.987 31.987 0 0 0 28.694 56.427 Q 36.18 56.427 41.079 53.376 A 16.407 16.407 0 0 0 43.52 51.52 A 16.062 16.062 0 0 0 48.384 42.722 A 23.81 23.81 0 0 0 48.854 37.867 L 48.854 0 L 58.88 0 L 58.88 53.333 L 64.214 53.333 L 64.214 64 L 53.12 64 L 53.12 54.4 L 48.64 54.4 A 21.476 21.476 0 0 1 39.52 62.4 A 27.961 27.961 0 0 1 31.742 64.75 A 37.101 37.101 0 0 1 26.027 65.173 A 33.918 33.918 0 0 1 18.074 64.292 A 23.376 23.376 0 0 1 7.04 58.347 A 22.724 22.724 0 0 1 0.447 45.507 A 32.549 32.549 0 0 1 0 40 Z M 78.684 63.109 A 7.399 7.399 0 0 0 84.054 65.28 A 9.08 9.08 0 0 0 84.153 65.279 A 7.395 7.395 0 0 0 89.494 63.04 A 8.812 8.812 0 0 0 89.563 62.97 A 7.399 7.399 0 0 0 91.734 57.6 A 9.08 9.08 0 0 0 91.733 57.5 A 7.395 7.395 0 0 0 89.494 52.16 A 8.812 8.812 0 0 0 89.423 52.091 A 7.399 7.399 0 0 0 84.054 49.92 A 9.08 9.08 0 0 0 83.954 49.921 A 7.395 7.395 0 0 0 78.614 52.16 A 8.812 8.812 0 0 0 78.544 52.23 A 7.399 7.399 0 0 0 76.374 57.6 A 9.08 9.08 0 0 0 76.374 57.7 A 7.395 7.395 0 0 0 78.614 63.04 A 8.812 8.812 0 0 0 78.684 63.109 Z" vector-effect="non-scaling-stroke"/>
    </g>
</svg>